# xmcd
#
# Track frame offsets: 
#        150
#        10402
#        21425
#        36732
#        45589
#        53202
#        70257
#        77577
#        89975
#        98445
#        108125
#        119387
#        130380
#        138632
#        152722
#
# Disc length: 2170 seconds
#
# Revision: 3
# Processed by: cddbd v1.5.2PL0 Copyright (c) Steve Scherf et al.
# Submitted via: ExactAudioCopy v1.0b3
#
DISCID=d108780f
DTITLE=The High Noon - Stranger Things
DYEAR=1995
DGENRE=Country
TTITLE0=Stranger Things
TTITLE1=Slow Down, Baby
TTITLE2=Call Of The Honky-Tonk
TTITLE3=High On A Hill
TTITLE4=Fishin' Hole Boogie
TTITLE5=I'm Done, I'm Through
TTITLE6=My Little Thrill
TTITLE7=Long Empty Stretch Of Highway
TTITLE8=Now You're Gonna Be Loved
TTITLE9=Rockin' Beauty
TTITLE10=Bluebonnet Boogie
TTITLE11=She Forgot Her Memory
TTITLE12=Mixed Signal Mama
TTITLE13=I Done Caught On
TTITLE14=Doggone That Cat
EXTD=
EXTT0=
EXTT1=
EXTT2=
EXTT3=
EXTT4=
EXTT5=
EXTT6=
EXTT7=
EXTT8=
EXTT9=
EXTT10=
EXTT11=
EXTT12=
EXTT13=
EXTT14=
PLAYORDER=
